<?xml version="1.0" encoding="utf-8"?>
<!-- Generator: Adobe Illustrator 28.0.0, SVG Export Plug-In . SVG Version: 6.00 Build 0)  -->
<svg version="1.1" id="Layer_1" xmlns="http://www.w3.org/2000/svg" xmlns:xlink="http://www.w3.org/1999/xlink" x="0px" y="0px"
	 viewBox="0 0 512 512" style="enable-background:new 0 0 512 512;" xml:space="preserve">
<style type="text/css">
	.st0{fill:#1D252D;}
</style>
<path class="st0" d="M31.9,11.1C-28.9,76.7,8.5,204.2,50.3,285c22.6,43.7,35.2,54,49.3,80.9c13.7,26,26.7,79.9,26.7,79.9l-62,0
	l-10-50.5l-39.3-23.4l16.6,129h223.1h1.2v-30.8h0c-27.6,0-50-22.4-50-50s22.4-50,50-50h0V19.8l0,0l-0.3-0.3l0,0.6l-65.8,64.8
	l40.2,58c0,0,3.7,100.4,5.1,137c0.1,3.4,0.3,9-0.1,20.6c-0.3,12.5-10.7,61.6-59,45.8C134.9,332.8,73,245.5,60.9,199.9
	c-12.1-45.6-0.9-55.1,16.8-40.2l59.8,50.5l14-25.2C76.8,118.6,54.8,71.6,31.9,11.1z M480.1,11.1c-22.9,60.6-44.9,107.5-119.7,173.9
	l14,25.2l59.8-50.5c17.7-14.9,28.9-5.5,16.8,40.2c-12.1,45.6-74,132.9-115.3,146.3c-48.3,15.8-58.7-33.3-59-45.8
	c-0.3-11.5-0.2-17.1-0.1-20.6c1.4-36.6,5.1-137,5.1-137l40.2-58l-65.8-64.8l0-0.6l-0.3,0.3v350.4c27.6,0,50,22.4,50,50
	c0,27.6-22.4,50-50,50v30.8h1.2h223.1l16.6-129l-39.3,23.4l-10,50.5l-62,0c0,0,13-53.9,26.7-79.9c14.2-26.8,26.7-37.2,49.3-80.9
	C503.5,204.2,540.9,76.7,480.1,11.1L480.1,11.1L480.1,11.1z"/>
</svg>
